<?xml version="1.0" standalone="no"?>
<!DOCTYPE svg PUBLIC "-//W3C//DTD SVG 20010904//EN"
 "http://www.w3.org/TR/2001/REC-SVG-20010904/DTD/svg10.dtd">
<svg version="1.0" xmlns="http://www.w3.org/2000/svg"
 width="1024.000000pt" height="1024.000000pt" viewBox="0 0 1024.000000 1024.000000"
 preserveAspectRatio="xMidYMid meet">
<metadata>
Created by potrace 1.16, written by Peter Selinger 2001-2019
</metadata>
<g transform="translate(0.000000,1024.000000) scale(0.100000,-0.100000)"
fill="#000000" stroke="none">
<path d="M0 5120 l0 -5120 5120 0 5120 0 0 5120 0 5120 -5120 0 -5120 0 0
-5120z m3088 2778 c-91 -141 -214 -378 -201 -387 4 -3 9 -17 9 -31 1 -14 2
-28 3 -32 0 -5 16 -8 34 -8 30 0 35 5 70 73 44 87 144 258 159 272 11 10 0
-10 -92 -173 -55 -99 -128 -256 -187 -406 -30 -77 -113 -395 -113 -435 0 -7
17 11 37 40 81 118 175 237 230 291 63 61 213 172 221 163 3 -2 -29 -40 -71
-82 -97 -101 -202 -225 -242 -288 -62 -96 -163 -312 -210 -445 -58 -166 -64
-178 -65 -123 0 23 -9 66 -20 96 -24 65 -146 221 -176 225 -29 4 -83 -44 -105
-93 -35 -79 -52 -199 -47 -329 5 -115 14 -157 65 -306 3 -10 10 -4 22 20 9 19
19 37 22 40 3 3 25 39 48 80 23 41 56 91 72 110 l30 35 -4 -32 c-4 -34 6 -45
17 -18 3 8 10 15 15 15 7 0 7 -8 1 -22 -5 -13 -25 -79 -44 -148 -89 -318 -183
-529 -343 -770 -161 -242 -146 -213 -278 -535 -34 -83 -89 -304 -82 -334 2 -9
21 20 46 69 108 211 249 389 587 740 55 58 111 120 123 138 54 77 26 -22 -30
-108 -64 -100 -175 -308 -208 -390 -87 -219 -161 -602 -161 -831 0 -215 52
-540 114 -719 28 -81 29 -109 0 -35 -12 33 -20 42 -26 33 -5 -8 -6 -3 -2 15 4
16 2 27 -5 27 -6 0 -8 7 -5 15 4 8 2 15 -4 15 -6 0 -8 10 -6 23 l5 22 -10 -22
c-6 -13 -14 -23 -19 -23 -4 0 -8 -9 -8 -20 0 -11 4 -20 9 -20 5 0 7 -21 6 -47
-3 -56 8 -110 27 -138 8 -11 14 -30 14 -43 0 -29 51 -116 132 -225 47 -64 58
-74 59 -55 1 13 5 6 9 -17 4 -22 7 -41 6 -42 -4 -5 -165 223 -210 297 -70 116
-162 367 -186 505 -58 345 -52 599 20 933 11 52 23 99 26 104 3 4 3 8 1 8 -2
0 -34 -40 -71 -90 -69 -91 -173 -271 -215 -370 -51 -122 -104 -230 -112 -230
-5 0 -9 17 -9 38 0 20 -5 55 -11 77 -5 22 -9 130 -9 240 l0 201 45 165 c79
295 152 457 331 739 50 80 121 204 157 276 l65 130 -29 60 c-16 32 -44 115
-62 184 -30 118 -32 135 -32 300 0 161 3 183 28 275 33 117 59 160 128 215 77
61 128 54 231 -31 26 -22 49 -39 52 -39 3 0 6 25 6 56 0 67 25 246 46 329 23
90 110 317 165 435 64 135 212 390 226 390 3 0 -1 -10 -9 -22z m3477 -942
c116 -37 236 -109 321 -191 117 -113 156 -207 233 -557 11 -53 21 -102 21
-108 0 -26 -26 0 -89 90 -98 139 -224 231 -376 276 -89 26 -239 24 -334 -5
-77 -23 -241 -101 -358 -169 -120 -70 -456 -201 -468 -182 -8 13 17 84 53 155
21 40 60 93 91 124 63 62 34 52 -66 -23 -76 -58 -144 -131 -224 -244 -78 -109
-77 -108 -72 -80 5 26 -28 120 -44 125 -5 2 -15 -14 -21 -35 -7 -22 -29 -65
-49 -96 -30 -45 -42 -56 -64 -56 -23 0 -34 10 -64 60 -20 33 -42 79 -49 102
l-12 43 -30 -45 c-16 -25 -34 -56 -40 -70 -10 -24 -11 -23 -36 30 -32 68 -168
216 -250 271 -65 44 -87 45 -46 1 58 -62 159 -253 137 -260 -5 -2 -50 6 -99
18 -99 23 -223 73 -358 145 -48 26 -114 57 -147 70 -33 12 -112 47 -175 76
l-115 54 -120 0 c-104 0 -129 -3 -191 -26 -148 -54 -283 -174 -358 -317 -42
-81 -59 -98 -36 -37 9 23 8 26 -5 21 -36 -13 -10 152 55 356 47 147 73 190
176 289 131 125 343 219 494 219 89 0 262 -41 373 -88 50 -22 126 -50 167 -62
41 -12 100 -30 130 -40 91 -31 227 -66 384 -100 226 -49 258 -45 726 97 47 14
126 36 175 50 50 13 119 35 155 49 36 14 133 43 215 65 178 47 257 48 390 5z
m-145 -818 c0 -81 -13 -125 -53 -185 -43 -65 -98 -91 -220 -104 -94 -10 -96
-10 -184 21 -48 17 -109 37 -135 43 -25 7 -49 14 -52 17 -2 3 48 23 112 45 64
21 191 76 280 122 138 71 199 96 245 102 4 1 7 -27 7 -61z m-2345 -48 c72 -37
184 -87 250 -110 66 -23 127 -44 135 -47 9 -4 1 -9 -21 -14 -21 -5 -54 -17
-75 -28 -50 -26 -169 -51 -242 -51 -75 0 -187 31 -219 61 -55 52 -78 127 -68
223 l7 64 52 -15 c28 -8 110 -45 181 -83z m-566 -97 c-13 -111 29 -269 89
-335 30 -33 79 -68 95 -68 5 0 -5 56 -21 115 -17 67 -22 119 -12 135 8 12 16
9 47 -21 21 -20 67 -57 102 -84 114 -86 297 -130 538 -129 l101 0 -116 -43
c-101 -37 -343 -103 -422 -116 -49 -8 67 -6 190 3 109 8 134 13 193 41 37 17
70 29 72 27 8 -7 -306 -155 -375 -177 -163 -51 -278 -53 -393 -6 -143 58 -244
191 -272 358 -9 53 11 141 48 211 33 62 121 161 135 152 5 -3 5 -31 1 -63z
m3363 -102 c30 -61 33 -74 33 -161 0 -88 -3 -101 -33 -162 -73 -148 -272 -268
-446 -268 -74 0 -229 40 -311 80 -119 58 -250 129 -239 130 7 0 40 -9 75 -19
35 -11 96 -24 134 -30 98 -14 276 -23 245 -12 -14 5 -45 10 -70 10 -25 1 -81
14 -125 30 -188 66 -285 104 -302 117 -16 13 -15 13 10 4 58 -21 205 -12 335
20 68 17 133 35 145 41 86 44 183 108 212 140 37 41 45 36 45 -29 0 -53 -16
-101 -50 -155 -16 -26 -30 -50 -30 -52 0 -10 78 30 113 57 62 49 84 109 117
308 7 41 14 81 16 89 8 25 90 -66 126 -138z m-1281 -307 c72 -36 189 -159 189
-197 0 -4 -21 6 -47 22 -56 35 -186 63 -237 51 -89 -20 -168 -85 -229 -191
-23 -39 -27 -58 -27 -122 0 -42 4 -78 9 -81 4 -3 27 17 50 44 29 35 64 60 117
86 66 33 84 38 152 38 128 1 216 -18 317 -68 190 -96 259 -180 259 -311 0
-126 -67 -227 -316 -478 -76 -76 -138 -140 -138 -142 0 -5 190 54 264 82 72
27 121 68 199 166 28 35 45 47 65 47 24 0 35 -13 89 -103 115 -192 163 -301
189 -427 33 -161 57 -399 51 -500 -5 -83 -30 -212 -46 -238 -6 -10 -23 -3 -72
31 -154 107 -417 215 -770 316 -202 58 -231 62 -484 68 -213 5 -253 3 -360
-16 -305 -52 -801 -236 -1024 -378 -29 -19 -55 -32 -57 -30 -8 8 -44 241 -44
285 0 25 4 73 9 106 6 34 15 104 21 156 16 130 58 334 80 384 29 66 128 237
172 295 l41 54 45 -49 c24 -27 57 -63 72 -80 18 -20 63 -45 126 -72 122 -51
281 -112 291 -112 4 0 -36 44 -88 98 -184 189 -325 377 -349 461 -26 95 -3
211 53 269 161 168 483 239 675 150 26 -12 70 -46 98 -74 l51 -52 5 75 c7 104
-5 136 -84 218 -56 60 -77 74 -132 94 -58 20 -71 22 -118 12 -29 -7 -85 -30
-125 -51 -40 -22 -77 -40 -83 -40 -16 0 23 70 70 123 52 58 124 97 181 97 126
0 300 -97 373 -208 23 -33 43 -61 46 -61 3 -1 16 20 29 45 33 61 139 148 210
172 31 11 81 29 111 40 55 21 73 21 121 -4z m-218 -2195 c295 -27 590 -124
763 -252 67 -49 198 -177 216 -211 11 -20 11 -20 -13 -3 -73 53 -121 80 -189
106 -178 69 -500 153 -710 186 -163 26 -431 31 -569 11 -219 -33 -417 -96
-611 -197 -97 -50 -130 -81 -130 -121 0 -32 53 -174 102 -272 16 -32 28 -60
25 -62 -2 -2 -48 34 -103 81 -94 80 -254 257 -254 281 0 17 182 188 247 232
166 113 363 177 663 216 192 26 323 27 563 5z"/>
<path d="M5607 4965 c-73 -27 -178 -88 -204 -119 -17 -21 -33 -30 -49 -28 -12
2 -40 -8 -62 -21 -76 -48 -104 -168 -83 -346 20 -162 41 -170 106 -41 49 98
95 156 161 200 42 30 144 73 152 65 3 -2 -1 -25 -7 -51 -7 -25 -10 -48 -8 -50
7 -7 96 34 143 67 24 17 57 49 71 72 15 23 29 44 30 46 2 3 9 -3 16 -13 16
-22 47 -11 47 15 0 33 -37 94 -81 133 -73 67 -166 95 -232 71z"/>
<path d="M4510 4961 c-80 -26 -160 -102 -181 -170 -15 -49 -2 -74 27 -51 14
12 23 6 75 -52 70 -79 95 -96 154 -107 42 -8 45 -7 45 13 0 12 -4 36 -10 55
l-9 34 35 -6 c104 -17 206 -104 297 -251 l60 -98 19 88 c24 112 19 230 -13
303 -36 84 -111 135 -147 99 -10 -10 -24 -1 -65 39 -82 82 -212 129 -287 104z"/>
<path d="M5891 4943 c-7 -13 -10 -14 -11 -3 0 11 -3 11 -12 2 -17 -17 -19 -45
-3 -38 9 3 12 0 9 -8 -3 -7 7 -21 21 -30 15 -10 24 -23 21 -31 -8 -23 47 -44
60 -23 7 11 24 0 24 -15 0 -9 -2 -9 -8 -1 -5 9 -11 8 -20 -2 -14 -15 -7 -18
29 -15 11 1 16 -5 15 -16 0 -10 5 -17 12 -15 6 1 12 -3 12 -10 0 -6 3 -8 7 -4
4 3 13 -4 21 -16 7 -13 11 -15 8 -6 -3 10 0 20 6 24 7 4 4 10 -7 17 -14 8 -15
11 -4 18 12 7 12 9 0 9 -11 0 -9 4 4 14 11 8 22 13 26 11 3 -2 6 2 6 10 0 8
-4 12 -8 9 -4 -2 -10 0 -14 6 -3 5 -12 10 -18 10 -8 0 -7 -3 2 -9 7 -5 10 -14
7 -20 -13 -21 -26 -11 -26 22 0 17 -7 41 -15 51 -8 11 -15 16 -15 12 0 -4 -14
6 -31 23 -17 17 -37 31 -44 31 -7 0 -20 3 -28 6 -9 3 -20 -2 -26 -13z"/>
<path d="M6171 4484 c-18 -20 -34 -49 -38 -65 -3 -16 -10 -29 -15 -29 -6 0 -8
-7 -4 -15 3 -8 0 -15 -6 -15 -6 0 -8 -3 -5 -7 8 -8 -11 -33 -25 -33 -6 0 -5 7
2 15 9 11 9 15 1 15 -6 0 -14 -7 -17 -15 -4 -8 -13 -15 -21 -15 -8 0 -12 4 -9
9 3 4 -10 1 -29 -7 -39 -18 -41 -28 -2 -13 17 7 28 7 32 1 4 -6 1 -10 -5 -10
-7 0 -9 -8 -5 -21 5 -15 4 -19 -4 -15 -6 4 -11 0 -11 -8 0 -15 17 -21 50 -16
10 1 9 -3 -5 -13 -11 -9 -22 -14 -25 -12 -3 2 -6 -9 -5 -23 0 -17 -5 -26 -13
-24 -10 2 -10 -2 -2 -18 9 -17 7 -22 -15 -30 -14 -5 -25 -15 -25 -22 0 -9 3
-8 10 2 9 13 10 13 10 0 0 -8 -5 -22 -10 -30 -7 -11 -10 -11 -10 -2 0 9 -10
12 -27 10 -22 -2 -28 -8 -28 -28 0 -31 -12 -50 -32 -50 -8 0 -13 6 -10 13 3 7
-5 13 -21 14 -18 1 -21 -1 -11 -8 10 -6 10 -9 2 -9 -7 0 -13 -7 -13 -15 0 -13
-18 -20 -42 -16 -12 2 -9 -24 3 -36 6 -6 19 -9 28 -6 21 8 12 -1 -18 -17 -13
-6 -21 -8 -17 -2 3 5 -2 16 -12 23 -15 12 -16 12 -6 -1 6 -9 8 -26 3 -40 l-7
-25 -2 25 c-2 18 -4 20 -7 7 -2 -9 -8 -15 -12 -13 -4 3 -8 -1 -8 -9 0 -8 5
-15 11 -15 6 0 6 -4 -1 -11 -6 -6 -9 -18 -6 -25 4 -10 0 -12 -11 -8 -12 5 -14
10 -6 20 13 14 -3 54 -21 54 -5 0 -2 -12 8 -26 17 -26 17 -27 -5 -20 -17 6
-22 3 -22 -9 0 -9 -5 -13 -11 -10 -6 4 -8 13 -5 21 3 8 1 14 -4 14 -16 0 -11
-26 10 -50 l20 -23 1 29 1 29 13 -30 c17 -37 19 -59 3 -49 -7 4 -8 3 -4 -4 4
-7 14 -12 23 -12 11 0 9 -5 -8 -19 -19 -15 -21 -22 -12 -32 6 -6 9 -18 6 -27
-5 -11 -3 -13 7 -7 8 5 11 4 6 -3 -3 -6 -2 -14 4 -17 6 -4 10 -16 8 -28 -2
-18 2 -22 20 -20 13 2 21 -1 18 -6 -3 -4 5 -6 18 -4 13 3 30 -2 39 -12 9 -9
47 -27 84 -39 220 -76 494 -209 555 -270 14 -13 17 -12 27 11 6 14 19 68 28
121 14 84 14 116 4 246 -11 134 -46 352 -69 431 -5 17 -14 29 -20 28 -6 -2 -9
8 -6 23 3 14 1 23 -5 20 -5 -3 -8 0 -7 7 1 14 -65 151 -76 155 -5 2 -8 12 -8
22 0 10 -3 20 -7 22 -5 2 -19 23 -32 48 -40 76 -65 110 -82 110 -10 0 -31 -16
-48 -36z"/>
</g>
</svg>
